<svg xmlns="http://www.w3.org/2000/svg" width="24" height="25" viewBox="0 0 24 25" fill="none">
    <rect x="0.5" y="1.08545" width="23" height="23" rx="11.5" stroke="white" />
    <path
        d="M19.0002 12.3357V12.8357C19.0002 13.1118 18.7764 13.3357 18.5003 13.3357L12.7502 13.3357L12.7502 19.0857C12.7502 19.3618 12.5264 19.5857 12.2502 19.5857H11.7503C11.4741 19.5857 11.2502 19.3618 11.2502 19.0857L11.2502 13.3357H5.50025C5.2241 13.3357 5.00024 13.1118 5.00024 12.8357V12.3357C5.00024 12.0596 5.2241 11.8357 5.50025 11.8357H11.2502V6.08569C11.2502 5.80955 11.4741 5.58569 11.7503 5.58569H12.2502C12.5264 5.58569 12.7502 5.80955 12.7502 6.08569V11.8357L18.5003 11.8357C18.7764 11.8357 19.0002 12.0596 19.0002 12.3357Z"
        fill="white" />
</svg>