<svg xmlns="http://www.w3.org/2000/svg" xml:space="preserve" width="60mm" height="60mm" version="1.1" style="shape-rendering:geometricPrecision; text-rendering:geometricPrecision; image-rendering:optimizeQuality; fill-rule:evenodd; clip-rule:evenodd"
viewBox="0 0 6000 6000"
 xmlns:xlink="http://www.w3.org/1999/xlink"
 xmlns:xodm="http://www.corel.com/coreldraw/odm/2003">
 <defs>
  <style type="text/css">
   <![CDATA[
    .fil0 {fill:#FFFFFF}
    .fil1 {fill:#ED282E}
   ]]>
  </style>
 </defs>
 <g id="Слой_x0020_1">
  <metadata id="CorelCorpID_0Corel-Layer"/>
  <g id="_468366392">
   <path class="fil0" d="M3956.71 1510.57c0,-5.19 -34.39,39.57 -38.19,48.56 -3.76,8.96 0,44.77 0,44.77 0,0 -35.36,21.69 -34.87,24.53 0.46,2.81 -0.03,11.31 -0.03,11.31 0,0 -32.04,-20.27 -46.18,-23.58 -14.13,-3.3 -47.61,-55.63 -86.27,-55.63 -38.64,0 -73.53,0.49 -94.28,4.26 -20.73,3.74 -49.49,17.99 -87.68,10.17 -38.16,-7.83 -78.22,0 -101.33,0 -23.11,0 -46.68,-26.7 -76.86,-28.12 -30.16,-1.39 -278.09,-0.93 -293.16,-2.34 -15.08,-1.4 -58.46,-14.13 -71.16,-15.55 -12.73,-1.42 -49.03,-46.21 -73.07,-41.02 -24.03,5.19 -57.5,44.79 -58.44,53.75 -0.96,8.96 13.65,35.34 13.65,35.34 0,0 62.69,4.24 65.5,7.54 2.84,3.31 17.48,11.29 28.32,12.26 10.82,0.96 89.54,-4.25 89.54,-4.25 0,0 190.95,62.68 217.34,65.99 26.38,3.33 145.63,9.91 145.63,9.91 0,0 50.48,14.15 76.37,16.99 25.93,2.82 74,0 74,0l6.14 20.73 -84.37 81.54c0,0 -74.98,24.08 -95.24,29.24 -20.27,5.17 -34.89,17.9 -34.89,17.9l-156.12 -67.1 -182.79 -63.49 -19.8 0.49 -296.46 -117.29c0,0 -94.29,-71.62 -149.9,-81.07 -55.61,-9.42 -256.43,-65.99 -269.64,-67.87 -13.2,-1.89 -109.37,-54.69 -134.8,-49.03 -25.46,5.65 -28.33,44.3 -27.34,57.5 0.95,13.21 47.14,73.58 56.57,75.44 9.41,1.88 73.53,-13.2 93.33,-7.54 19.8,5.65 166.88,78.2 198,97.07 31.08,18.87 82.97,46.21 110.29,47.17 27.32,0.93 42.42,2.81 42.42,2.81 0,0 94.13,91.19 160.25,128.24l237.24 132.92 -1.86 32.52c-0.55,9.77 194.98,171.89 194.98,171.89l-8.57 228.18 26.54 5.04 8.96 37.5c0,0 84.91,251.7 83.96,262.06 -0.96,10.38 -12.29,137.66 -5.69,150.85 6.61,13.22 68.84,146.16 77.33,165 8.5,18.83 43.35,169.66 39.58,181.92 -3.74,12.28 -8.44,67.92 -0.93,88.65 7.54,20.72 27.32,36.75 51.85,36.75 24.5,0 129.13,-11.32 148.94,0 19.83,11.3 77.32,0 77.32,0 0,0 -32.99,-48.08 -67.88,-53.73 -34.87,-5.69 -103.68,-47.12 -108.41,-54.69 -4.72,-7.53 -40.56,-263.05 -41.51,-290.37 -0.93,-27.31 -26.36,-148.01 -26.36,-148.01 0,0 8.47,-131.99 0,-151.79 -8.49,-19.77 -4.73,-176.28 -4.73,-176.28l14.13 -26.41 -1.86 -147.99 8.47 -29.26 1.89 -52.77c0,0 181.93,-27.33 214,-30.17 32.07,-2.82 108.41,-10.39 108.41,-10.39l93.36 -24.47c0,0 -65.07,105.6 -69.76,118.76 -4.73,13.2 -26.41,82.96 -20.77,101.8 5.66,18.87 106.89,115.04 106.89,120.7 0,5.66 12.84,22.64 11.91,39.61 -0.93,16.96 29.2,18.82 38.64,15.07 9.46,-3.77 44.3,-61.28 44.3,-82.98 0,-21.69 -19.8,-61.31 -19.8,-61.31l-7.54 -16.91 -20.73 -2.84 -34.87 -58.46c0,0 51.81,-76.37 52.8,-82.97 0.94,-6.58 124.44,-124.42 117.83,-184.74 -6.59,-60.35 -57.5,-164.03 -57.5,-164.03 0,0 -16.03,-62.27 -13.22,-69.79 2.84,-7.51 31.13,-37.68 31.13,-37.68 0,0 65.2,-56.98 86.01,-86.7l35.21 11.23c0,0 -23.19,33.07 -23.19,58.19 0,25.12 0,68.81 23.19,77.35 23.18,8.54 22.41,51.27 22.41,51.27l26.69 -25.66c0,0 -10.68,-9.61 -26.25,-24.55 -15.57,-14.95 -19.65,-71.52 -22.85,-82.18 -3.2,-10.66 26.67,-40.56 22.41,-60.83 -2.55,-12.16 -27.73,-32.73 -47.5,-47.29 1.24,-42.01 -8.91,-105.76 -48.05,-119.72 -52.79,-18.85 -181.94,-6.61 -192.32,-0.96 -10.37,5.66 1.29,39.04 1.29,39.04z"/>
   <path class="fil1" d="M2316.47 1349.23c0,0 11.33,27.11 19.24,30.54 7.9,3.46 49.8,-6.88 61.63,0 11.82,6.92 48.3,30.58 59.63,40.44 11.36,9.88 38.99,28.6 44.41,37.97 5.4,9.37 8.86,31.52 8.86,36.97 0,5.46 -34.49,7.93 -57.19,26.65 -22.69,18.72 -49.31,35.99 -49.31,35.99 0,0 -55.69,3.46 -71.46,11.83 -15.81,8.36 -61.14,26.15 -67.57,16.26 -6.4,-9.86 6.89,-43.4 11.33,-48.82 4.45,-5.42 9.4,-58.69 14.33,-68.03 4.91,-9.37 26.08,-63.1 24.12,-80.83 -1.94,-17.77 -8.37,-48.83 1.98,-38.97zm-378.28 516.54l0 0c19.9,5.37 43.77,11.91 66.69,18.33 -5.06,-21.76 -10.48,-46.39 -17.17,-75.08l-49.52 56.75zm99.51 123.67l0 0c19.04,40.52 48.11,77.36 104.37,133.62l85.47 76.56 -8.58 151.75c18.67,62.84 0.23,124.14 8.91,203.96l22.77 204.37c2.99,30.29 7.49,23.11 11.95,44.82 14.51,70.23 -25.86,63.88 45.47,238.43 35.01,85.64 113.75,164.55 13.42,242.48 -68.54,53.29 -78.28,24.9 -78.28,56.6 0,22.85 27.96,28.4 49.68,28.4 40.27,0 87.75,-42.13 139.54,-59.2 72.13,-23.78 33.95,-42.45 16.58,-146.6 -22.05,-131.85 -3.07,-223.32 -15.31,-261.43 -8.08,-25.12 -41.44,-66.86 -41.44,-86.38 0,-29.26 14.2,-25.85 14.2,-113.55 12.19,-3.25 7.87,-1.21 45.51,-20.08l-4.69 -137.39 52.36 -236.71 55.84 -102.66c20.01,-29.72 37.54,-59.64 58.22,-90.83 78.53,-106.05 35.43,-60.56 49.33,-135.04l27.33 -22.49c0,82.38 6.29,68.6 30.61,125.49 76.65,179.44 -7.33,168.67 -2.24,208.07 4.88,37.54 61.21,38.41 72.34,105.07 20.22,120.76 4.54,89.52 48.33,129.12 34.65,31.35 44.43,-14.79 43.22,-63.77 -1.03,-41.44 -8.18,-53.6 -7.9,-99.29 0.98,-153.42 -28.24,-122.22 -28.24,-184.7 0,-93.81 19.77,-442.02 -106.27,-497.17 -58.66,-25.64 -87.37,2.58 -127.6,30.78 -1.31,4.2 -102.11,84.88 -141.74,176.46 0,0 -59.66,5.45 -64.1,0 -4.44,-5.44 -2.97,-160.74 -4.91,-173.55 -1.96,-12.81 8.37,-20.7 20.69,-23.64 29.4,-7.08 152.6,-73.92 180.49,-96.98 120.85,-99.89 49.34,-129.58 -60.08,-219.53 -73.71,-60.59 -86.98,-52.77 -145.2,-96.09 -36.46,-27.19 -51.15,-7.93 -95.11,-25.59 -14.59,-5.86 -26.65,-12.31 -38.81,-17.94 -2.27,-1.09 -18.69,-8.63 -19.49,-8.91 -11.9,-4.46 1.27,-3.98 -22.43,-5.97 1.52,18.23 1.15,19.68 9.93,32.67 6.02,8.82 6.41,6.74 10.54,10.73 0.72,0.73 3.38,4.37 3.92,3.21 0.54,-1.19 2.74,1.99 4.01,3.07 -40.77,-3.38 -35.3,-8.65 -83.53,1.55 -29.32,6.19 -55.92,25.71 -76,53.18 -22.49,-1.06 -47.77,-0.54 -56.21,6.02 -16.35,12.72 -12.86,54.84 -22.17,60.91 -9.33,6.06 -48.99,46.62 -70.55,47.97 -21.53,1.34 -35.88,1.77 -35.88,1.77l3.8 36.84c0,0 27,-33.12 50.21,-24.68 23.23,8.47 51.46,-24.88 67.67,-44.04 16.24,-19.19 19.9,-59.41 19.9,-59.41l23.14 9.6c-22.25,50.2 -27.42,114.92 2.16,172.91 39.61,77.58 -71.98,55.18 -96.09,67.1 -42.13,20.86 -52.15,43.84 -60.21,95.97 -5.57,36.11 -34.15,60.54 -64.66,98.52 -58.7,72.98 -73.95,160.15 15.82,164.1l0.02 0.03 6.04 1.1c-4.08,9.89 -37.38,77.73 -13.83,119.63 22.09,-16.16 14.22,-18.94 14.22,-56.73l14.38 28.18c10.43,13.6 1.03,9.03 21.07,14.38 -8.75,-37.61 -10.97,-71.17 -8.41,-100.37l136.5 25.3z"/>
   <path class="fil0" d="M4481.02 4034.44c-54.4,0 -108.25,0 -162.11,0 0,-106.91 0,-213.9 0,-320.81 0,-107.02 0,-214 0,-321.08 53.86,-4.08 107.71,-8.49 162.11,-12.88 0,0 0,54.66 0,163.79 0,109.11 0,272.74 0,490.98zm300.52 -411.97l0 0c0,-45.63 0,-91.32 0,-136.92 0,-45.62 0,-91.39 0,-137.09 54.38,-6.37 108.78,-13.58 163.17,-21.05 0,117.94 0,235.88 0,353.66 0,117.75 0,235.61 0,353.37 -54.39,0 -108.79,0 -163.17,0 0,-45.44 0,-90.95 0,-136.48 0,-45.46 0,-91 0,-136.62 -87.8,4.16 -175.58,7.72 -262.83,11.13 11.32,-44.95 23.16,-90.06 35.01,-135.31 75.94,-4.52 151.87,-9.33 227.82,-14.69zm-519.17 28.73l0 0c0,37.59 0,75.15 0,112.61 0,37.55 0,75.03 0,112.6 0,47.14 -21.94,87 -67.33,118.68 -38.06,26.54 -82.39,39.35 -131.95,39.35 -81.85,0 -163.72,0 -245.05,0 -59.76,0 -109.41,-16.83 -149.18,-51.12 -33.45,-28.86 -50.08,-62.29 -50.08,-100.12 0,-51.22 0,-102.5 0,-153.72 0,-51.3 0,-102.5 0,-153.72 0,-45.18 22.08,-83.29 67.34,-114.73 38.2,-26.52 82.4,-40.18 131.92,-41.94 124.42,-4.49 248.81,-10.53 373.23,-17.29 0,42.78 0,85.53 0,128.27 -123.88,5.31 -247.73,10.01 -371.6,13.73 -16.68,0.48 -29.22,6.66 -36.09,19 -2.25,4.08 -2.69,8.05 -2.69,11.78 0,51.04 0,102.15 0,153.12 0,51.04 0,102.08 0,153.02 0,13.09 7.46,22.56 23.7,27.73 5.27,1.66 10.23,2.63 15.08,2.63 80.25,-0.13 160.51,-1.13 240.73,-1.93 16.7,-0.18 29.23,-6.74 36.09,-19.6 2.24,-4.24 3.23,-8.32 3.23,-12.11 0,-31.29 0,-62.58 0,-93.84 -63.57,1.31 -126.56,2.42 -189.58,3.43 11.84,-41.78 23.69,-83.6 35.54,-125.55 105.57,-2.87 211.12,-6.2 316.69,-10.28zm-700.13 383.24l0 0c-54.4,0 -108.25,0 -162.11,0 0,-100.97 0,-202.03 0,-303.08 0,-101.07 0,-202.22 0,-303.3 53.86,-0.68 107.71,-1.45 162.11,-2.54 0,101.49 0,203.07 0,304.56 0,101.49 0,202.98 0,304.36zm-214.37 -605.79l0 0c0,40.95 0,81.92 0,122.86 -129.24,0.68 -257.95,1.02 -386.67,1.2 0,39.5 0,78.92 0,118.42 99.09,-0.15 198.2,-0.23 297.83,-0.59 -11.85,40.71 -23.7,81.41 -35.55,122.09 -87.78,0.07 -175.04,0.18 -262.28,0.28 0,40.25 0,80.61 0,120.83 0,40.25 0,80.53 0,120.7 -54.4,0 -108.26,0 -162.11,0 0,-100.61 0,-201.43 0,-302.15 0,-100.73 0,-201.56 0,-302.35 0,0 182.59,0.23 548.78,-1.29zm2080.47 605.79l0 0c-54.41,0 -108.26,0 -162.12,0 0,-100.9 0,-201.87 0,-302.77 0,-100.97 0,-201.84 0,-302.84 -88.32,12.71 -176.1,23.83 -263.88,34.75 0,-47.97 0,-95.96 0,-144.06 0,0 229.96,-37.28 690.45,-132.94 -11.85,59.53 -23.7,118.61 -35.55,177.29 -76.48,13.99 -152.95,27.73 -228.9,40.12 0,105.05 0,210.19 0,315.24 0,105.13 0,210.18 0,315.21z"/>
   <path class="fil1" d="M733.19 4034.44c-54.4,0 -108.25,0 -162.11,0 0,-104.87 0,-209.74 0,-314.72 0,-104.87 0,-209.82 0,-314.72 -88.33,-14.69 -176.1,-31.14 -263.88,-47.66 0,-56.88 0,-113.78 0,-170.76 0,0 229.96,52.59 689.87,135.57 -11.85,46.24 -23.7,92.54 -35.55,139.08 -76.47,-9.76 -152.4,-19.78 -228.33,-30.88 0,100.72 0,201.36 0,302.09 0,100.65 0,201.39 0,302zm1651.21 -308.19l0 0c-0.49,45.52 -24.63,83.11 -70.02,112 -37.53,23.91 -80.81,35.92 -129.24,35.71 -63.54,-0.29 -127.1,-1.19 -190.64,-1.89 -11.85,-42.03 -23.7,-84.17 -35.55,-126.58 0,0 0.54,0.07 1.08,0.07 0,0 0.52,0 1.06,0 0,0 0,0 0.55,0 0,0 0.53,0 1.08,0.14 0,0 0.54,0 1.08,0 0,0 0,0 0.51,0 0,0 0.55,0 1.1,0 0,0 0.53,0 1.08,0.07 0,0 0,0 0.54,0 0,0 0.54,0 1.05,0 0,0 0.55,0 1.09,0 0,0 0.55,0.08 1.08,0.08 0,0 0,0 0.55,0 0,0 0.54,0 1.06,0 0,0 0.54,0 1.08,0 0,0 0,0 0.55,0 0,0 0.53,0 1.08,0.07 0,0 0.54,0 1.06,0 0,0 0,0 0.54,0 0,0 0.54,0 1.09,0 0,0 0.53,0 1.08,0.09 0,0 0.54,0 1.06,0 0,0 0,0 0.53,0 0,0 0.55,0 1.09,0 0,0 0.54,0.07 1.09,0.07 0,0 0,0 0.54,0 0,0 0.55,0 1.06,0 0,0 0.54,0 1.08,0.1 0,0 0,0 0.55,0 0,0 0.53,0 1.08,0.08 0,0 0.54,0 1.06,0 0,0 0,0 0.54,0 0,0 0.54,0 1.09,0 0,0 0.53,0 1.08,0 0,0 0,0 0.54,0 0,0 0.52,0 1.06,0.07 0,0 0.54,0 1.09,0 0,0 0.53,0 1.08,0 0,0 0,0 0.54,0 0,0 0.52,0.11 1.05,0.11 0,0 0.55,0 1.09,0 0,0 0,0 0.54,0 0,0 0.54,0 1.09,0 0,0 0.52,0 1.06,0 0,0 0,0 0.54,0 0,0 0.54,0 1.09,0.08 0,0 0.53,0 1.08,0 0,0 0,0 0.52,0 0,0 0.54,0 1.08,0 0,0 0.54,0 1.09,0 0,0 0.53,0.11 1.08,0.11 0,0 0,0 0.51,0 0,0 0.55,0 1.08,0 0,0 0.55,0 1.1,0 0,0 0,0 0.53,0 0,0 0.55,0 1.09,0.07 0,0 0.52,0 1.05,0 0,0 0,0 0.55,0 0,0 0.54,0 1.09,0 0,0 0.53,0 1.08,0 0,0 0,0 0.52,0.08 0,0 0.54,0 1.08,0 0,0 0.54,0 1.09,0 0,0 0,0 0.53,0 0,0 0.55,0 1.07,0 0,0 0.54,0 1.08,0.07 0,0 0.54,0 1.09,0 0,0 0,0 0.53,0 0,0 0.55,0 1.06,0 0,0 0.55,0 1.08,0 0,0 0,0 0.55,0.09 0,0 0.54,0 1.08,0 0,0 0.55,0 1.06,0 0,0 0,0 0.55,0 0,0 0.54,0 1.08,0 0,0 0.54,0 1.09,0.07 0,0 0.53,0 1.05,0 0,0 0,0 0.55,0 0,0 0.54,0 1.08,0 0,0 0.54,0 1.09,0 0,0 0,0 0.53,0 0,0 0.52,0 1.06,0 0,0 0.55,0 1.09,0.13 0,0 0,0 0.54,0 0,0 0.55,0 1.08,0 0,0 0.52,0 1.06,0 0,0 0,0 0.55,0 0,0 0.53,0 1.08,0 0,0 0.54,0.08 1.08,0.08 0,0 0.55,0 1.06,0 0,0 0,0 0.55,0 0,0 0.54,0 1.08,0 0,0 0.54,0 1.09,0.07 0,0 0,0 0.53,0 0,0 0.52,0 1.07,0 0,0 0.54,0 1.08,0 0,0 0,0 0.54,0 0,0 0.55,0 1.08,0 0,0 0.52,0.08 1.06,0.08 0,0 0,0 0.55,0 0,0 0.53,0 1.08,0.08 0,0 0.55,0 1.08,0 0,0 0,0 0.52,0 0,0 0.54,0 1.09,0 0,0 0.53,0 1.08,0 0,0 0.54,0 1.09,0 0,0 0,0 0.51,0 0,0 0.54,0 1.09,0 0,0 0.54,0 1.08,0 0,0 0,0 0.54,0 0,0 0.55,0 1.06,0.08 0,0 0.54,0 1.09,0 0,0 0,0 0.54,0 0,0 0.54,0 1.08,0 0,0 0.55,0 1.06,0 0,0 0,0 0.54,0.07 0,0 0.54,0 1.09,0 0,0 0.53,0 1.08,0 0,0 0.55,0 1.08,0 0,0 0,0 0.52,0 0,0 0.54,0 1.09,0.11 0,0 0.53,0 1.08,0 0,0 0,0 0.54,0 0,0 0.55,0 1.06,0 0,0 0.54,0 1.09,0 0,0 0,0 0.54,0.1 0,0 0.54,0 1.08,0 0,0 0.55,0 1.06,0 0,0 0,0 0.54,0 0,0 0.55,0 1.09,0 0,0 0.54,0 1.08,0.08 0,0 0.55,0 1.06,0 0,0 0,0 0.54,0 0,0 0.54,0 1.09,0 0,0 0.53,0 1.08,0 0,0 0,0 0.54,0.08 0,0 0.52,0 1.06,0 0,0 0.54,0 1.09,0 0,0 0,0 0.54,0 0,0 0.54,0 1.08,0 0,0 0.52,0 1.06,0.08 0,0 0,0 0.54,0 0,0 0.55,0 1.09,0 0,0 0.54,0 1.08,0 0,0 0.52,0 1.06,0 0,0 0,0 0.54,0 0,0 0.54,0 1.09,0 0,0 0.54,0 1.08,0.07 0,0 0,0 0.55,0 0,0 0.51,0 1.05,0 0,0 0.54,0 1.09,0.1 0,0 0,0 0.53,0 0,0 0.55,0 1.09,0 0,0 0.52,0 1.06,0 0,0 0,0 0.54,0 0,0 0.55,0 1.09,0 0,0 0.54,0 1.08,0 0,0 0.52,0 1.06,0.08 0,0 0,0 0.54,0 0,0 0.55,0 1.09,0 0,0 0.54,0 1.08,0 0,0 0,0 0.52,0 0,0 0.54,0 1.08,0 0,0 0.54,0.07 1.09,0.07 0,0 0,0 0.53,0 0,0 0.55,0 1.07,0 0,0 0.54,0 1.08,0 0,0 0,0 0.54,0 0,0 0.55,0.09 1.08,0.09 0,0 0.55,0 1.07,0 0,0 0,0 0.54,0 0,0 0.54,0 1.08,0 0,0 0.55,0 1.09,0 0,0 0.54,0.1 1.05,0.1 0,0 0,0 0.55,0 0,0 0.54,0 1.08,0 0,0 0.55,0 1.09,0 0,0 0,0 0.54,0 0,0 0.54,0 1.06,0 0,0 0.54,0 1.08,0 0,0 0,0 0.54,0.08 0,0 0.55,0 1.08,0 0,0 0.55,0 1.07,0 0,0 0,0 0.54,0 0,0 0.54,0 1.08,0 0,0 0.55,0 1.09,0.1 0,0 0.54,0 1.06,0 0,0 0,0 0.54,0 0,0 0.54,0 1.08,0 0,0 0.55,0 1.09,0 0,0 0,0 0.54,0.08 0,0 0.51,0 1.06,0 0,0 0.54,0 1.08,0 0,0 0,0 0.54,0 0,0 0.55,0 1.09,0 0,0 0.51,0 1.06,0.07 0,0 0,0 0.54,0 0,0 0.54,0 1.08,0 0,0 0.55,0 1.08,0 0,0 0.52,0 1.07,0 0,0 0,0 0.54,0.09 0,0 0.54,0 1.08,0 0,0 0.55,0 1.09,0 0,0 0,0 0.51,0 0,0 0.54,0 1.09,0 0,0 0.54,0 1.08,0.07 0,0 0,0 0.55,0 0,0 0.54,0 1.06,0 0,0 0.53,0 1.08,0 0,0 0,0 0.54,0 0,0 0.54,0 1.08,0.08 0,0 0.55,0 1.09,0 0,0 0.51,0 1.06,0 0,0 0,0 0.54,0 0,0 0.54,0 1.08,0 0,0 0.55,0 1.08,0 0,0 0,0 0.52,0 0,0 0.55,0 1.09,0 0,0 0.54,0.13 1.08,0.13 0,0 0,0 0.55,0 0,0 0.54,0 1.05,0 0,0 0.54,0 1.09,0 0,0 0,0 0.54,0 0,0 0.54,0.07 1.09,0.07 0,0 0.54,0 1.06,0 0,0 0,0 0.53,0 0,0 0.55,0.08 1.09,0.08 0,0 0.54,0 1.08,0 0,0 0.55,0 1.07,0 0,0 0,0 0.53,0 0,0 0.55,0 1.09,0 0,0 0.54,0 1.08,0 0,0 0,0 0.55,0 0,0 0.51,0 1.05,0 0,0 0.55,0 1.09,0 2.68,0.08 5.94,0.13 9.16,0.16 17.74,0.2 29.87,-6.36 36.07,-19.08 1.86,-3.8 2.71,-7.36 2.71,-11.01 0,-47.91 0,-95.8 0,-143.72 0,-13.82 -8.1,-23.16 -25.33,-28.24 -4.85,-1.42 -9.71,-2.28 -13.45,-2.35 -89.95,-2.51 -179.89,-5.19 -269.82,-8.76 0,83.11 0,166.09 0,249.1 0,83 0,166.03 0,248.93 -54.4,0 -108.25,0 -162.11,0 0,-105.54 0,-211.27 0,-316.84 0,-105.62 0,-211.34 0,-317.1 144.87,8.4 289.75,15.5 434.62,20.28 59.75,1.96 109.9,19.9 149.18,55.01 32.35,28.97 49.64,61.63 50.08,98 0.62,50.87 0.54,101.7 0,152.46zm-891.85 -345.05l0 0c59.74,5.39 109.49,26.72 149.71,65.78 33.54,32.58 50.09,68.52 50.09,108.02 0,53.49 0,107.09 0,160.67 0,53.6 0,107.14 0,160.66 0,47.22 -22.52,86.7 -67.31,118.2 -38.11,26.79 -82.41,39.91 -132.49,39.91 -85.64,0 -171.25,0 -256.89,0 -59.25,0 -109.13,-18.87 -149.17,-58.56 -33.75,-33.48 -50.1,-72.75 -50.1,-116.51 0,-59.25 0,-118.61 0,-177.88 0,-59.26 0,-118.62 0,-177.89 0,-52.31 22.47,-93.57 67.31,-122.5 37.52,-24.2 81.9,-32.64 131.96,-26.81 85.64,9.99 171.25,19.11 256.89,26.91zm-2.69 522.24l0 0c17.2,0.34 29.59,-5.79 36.62,-19.24 2.14,-4.12 2.7,-8.49 2.7,-12.36 0,-54.03 0,-108.03 0,-162.04 0,-54.01 0,-108.09 0,-162.1 0,-14.75 -8.64,-25.08 -25.32,-31.04 -4.85,-1.73 -9.71,-2.89 -14,-3.2 -84.01,-6.61 -167.5,-13.27 -250.97,-20.96 -18.28,-1.71 -31.48,3.74 -37.7,17.47 -1.88,4.17 -2.66,8.63 -2.68,12.14 -0.47,56.83 0,113.75 0,170.66 0,56.8 0,113.6 0,170.5 0,14.92 8.18,25.22 24.76,31.54 4.93,1.87 9.73,3.28 15.62,3.39 83.47,1.91 166.99,3.66 250.97,5.24z"/>
   <path class="fil0" d="M1869.44 4659.18l114.37 -153.28 -29.1 -21.84 -127.69 52.75 14.17 -138 -29.3 -22 -114.84 152.95 33.23 24.94 67.43 -89.8 -10.53 107.25 15.93 11.96 101.75 -41.83 -68.7 91.94 33.28 24.96zm149.84 94.26l0 0c-47.42,-26.57 -60.36,-69.5 -32.83,-118.63l52.33 -93.43 38.62 21.63 -51.56 92.02c-17.73,31.68 -11.25,52.56 12.09,65.65 23.62,13.22 44.56,7.7 62.29,-23.98l51.56 -92.02 38.16 21.35 -52.36 93.44c-27.52,49.13 -70.86,60.54 -118.3,33.97zm287.75 129.17l0 0 43.29 16.86 -10.25 -209.26 -40.71 -15.84 -148.9 147.26 42.29 16.44 30.65 -32.01 82.72 32.22 0.91 44.33zm-58.2 -102.73l0 0 54.87 -57.21 1.64 79.23 -56.51 -22.02zm365.53 -3.33l0 0 -41.82 -11.77 -72.21 67.93 -26.13 -95.66 -45.23 -12.73 37.92 138.41 -18.54 65.76 42.61 12 18.38 -65.24 105.02 -98.7zm158.68 216.46l0 0 43.94 5.14 17.97 -154.17 60.8 7.11 4.18 -35.84 -165.54 -19.28 -4.19 35.81 60.81 7.09 -17.97 154.14zm304.99 -179.31l0 0 0.51 75.4 -86.87 0.59 -0.52 -75.42 -44.28 0.31 1.32 191.26 44.28 -0.31 -0.55 -78.41 86.88 -0.59 0.54 78.41 44.28 -0.29 -1.32 -191.26 -44.27 0.31zm278.37 160.66l0 0 45.9 -7.06 -113.65 -176.01 -43.2 6.66 -55.12 202 44.85 -6.89 10.48 -43.09 87.76 -13.5 22.98 37.89zm-101.83 -59.76l0 0 18.84 -76.99 41.11 67.74 -59.95 9.25zm212.09 35.78l0 0 43.04 -10.43 -45.1 -185.89 -43.04 10.46 45.1 185.86zm336.17 -159.01l0 0c-7.89,9.97 -17.32,16.42 -28.31,21.2 -33.62,14.54 -67.06,1.28 -81.25,-31.55 -14.43,-33.39 -0.96,-66.31 33.12,-81.04 17.82,-7.7 35.32,-7.83 53.96,0.18l15.67 -35.38c-25.64,-12.41 -55.74,-11.87 -86.59,1.48 -55.92,24.19 -80.17,79.62 -57.29,132.52 22.9,52.93 79.91,73.22 135.06,49.37 25.09,-10.88 48.32,-30.13 61.31,-53.04l-30.8 -71.21 -37.1 16.07 22.22 51.4zm185.87 -264.17l0 0 -5.94 144.01 32.54 59.46 -38.84 21.25 -32.79 -59.95 -123.95 -72.32 41.21 -22.53 85.61 50 4.05 -99.05 38.11 -20.87zm316.07 1.86l0 0 -114.3 -153.35 -29.23 21.65 14.13 137.46 -128.21 -52.95 -29.44 21.78 113.83 153.7 33.38 -24.71 -66.84 -90.26 99.78 40.69 16.02 -11.85 -11.05 -109.47 68.49 92.07 33.44 -24.76z"/>
   <path class="fil1" d="M4757.25 4230.73l671.09 0 -594.72 114.4c-186.26,254.02 -421.35,463.82 -688.05,619.38 -342.01,199.46 -735.99,309.78 -1145.6,309.78 -409.25,0 -802.86,-110.09 -1144.68,-309.24 -267.06,-155.59 -502.41,-365.59 -688.93,-619.89l-595.28 -114.43 671.6 0c180,257.09 412.05,468.42 677.15,622.89 322.31,187.77 693.7,291.58 1080.14,291.58 386.78,0 758.54,-104.02 1081.06,-292.13 264.7,-154.39 496.42,-365.55 676.22,-622.34z"/>
   <path class="fil0" d="M725.67 2999.99l0 -1.41 0 -1.45 0.14 -21.43 0.02 -1.42 0 -1.42 0.03 -1.44 0 -0.83 0.02 -0.59 0 -1.42 0.03 -1.42 0.03 -1.45 0.03 -1.42 0.02 -1.42 0.02 -1.43 0.03 -1.42 0.26 -12.82 0.02 -1.42 0.03 -1.42 0.05 -1.42 0.03 -1.42 0 -0.23 0.03 -1.19 0.04 -1.43 0.03 -1.42 0.05 -1.44 0.54 -17.04 0.06 -1.39 0.05 -1.42 0.05 -1.42 0.05 -1.42 0.03 -1.03 0.03 -0.39 0.04 -1.42 0.06 -1.42 0.02 0c5.63,-143.37 24.58,-283.33 55.56,-418.69l0.65 -2.77 4.54 -19.38 0.67 -2.77 0.67 -2.76 0.68 -2.76c10.09,-41.39 21.29,-82.33 33.6,-122.82l0.83 -2.7 0.83 -2.69c42.16,-137.33 96.98,-269.11 163.09,-393.98l1.35 -2.53 1.34 -2.52c12.11,-22.73 24.58,-45.24 37.43,-67.49l1.42 -2.48 10.1 -17.25 1.44 -2.45c97.59,-164.87 215.43,-316.32 350.09,-450.99 411.57,-411.56 980.16,-666.12 1608.17,-666.12 628.03,0 1196.67,254.58 1608.18,666.12 137.2,137.2 256.89,291.85 355.56,460.34l1.45 2.47 1.45 2.45 1.42 2.46 1.45 2.48c7.15,12.34 14.17,24.76 21.08,37.22l1.4 2.51 1.37 2.48 1.37 2.5 8.2 15.06 1.35 2.5 1.34 2.53 1.37 2.51 1.34 2.53 1.34 2.52 1.35 2.51c65.19,123.04 119.38,252.8 161.36,387.96l0.02 0 0.83 2.68 0.05 0.21 0.77 2.45 2.46 8.03 0.82 2.69 0.8 2.68 0.16 0.51 0.65 2.17 0.8 2.69 0.8 2.69 0.8 2.68 0.8 2.71 0.78 2.68 0.22 0.81 0.58 1.88 0.77 2.69 0.78 2.7 0.77 2.69 0.77 2.71 0.78 2.69 0.31 1.1 0.46 1.61 0.75 2.71 0.77 2.69 0.75 2.7 0.75 2.72 0.75 2.71 0.75 2.71 0.75 2.71 0.74 2.71 0.73 2.71 0.75 2.71 0.72 2.71 0.46 1.71 0.27 1 0.72 2.74 0.72 2.71 0.72 2.71 0.72 2.74 0.71 2.71 0.53 2.01 0.19 0.72 0.7 2.72 0.69 2.73 0.7 2.74 0.69 2.71 0.7 2.74 0.6 2.29 0.1 0.45 0.67 2.73 0.69 2.73 0.68 2.75 0.67 2.73 0.67 2.74 1.34 5.47 0.65 2.74 0.67 2.76 0.64 2.74 0.65 2.74 0.67 2.76 0.06 0.18 0.59 2.55 0.62 2.77 0.64 2.73 0.65 2.76 0.62 2.77 0.64 2.73 0.13 0.49 0.5 2.28 0.62 2.76c30.56,135.62 48.91,275.76 53.98,419.36l0.04 1.45 0.03 0.03 0.03 1.39 0.18 5.73 0.06 0.9 0 0.52 0.07 2.86 0.05 1.45 0.08 2.87 0.02 0.31 0.03 1.11 0.03 1.44 0.04 1.42 0.19 7.17 0.02 1.45 0.13 5.73 0.03 1.45 0.03 1.42 0.02 1.45 0.03 1.45 0.03 1.42 0.02 1.44 0.02 1.44 0.03 1.42 0 1.45 0.03 0.88 0 0.56 0.02 1.42 0.03 1.45 0 1.45 0.02 1.42 0.03 1.44 0 0.31 0 1.14 0.02 1.45 0 1.42 0.03 1.44 0 1.44 0.03 1.17 0 0.28 0 1.45 0.03 1.42 0 1.44 0 1.45 0 1.45 0 0.56 0.02 0.88 0 1.44 0 1.42 0 1.45 0 1.45 0 1.44c0,30.78 -0.62,61.4 -1.84,91.89l-1623.84 -64.37 -7.64 -54.73 1502.5 -59.56c-5.27,-132.06 -22.46,-261.02 -50.55,-385.9l-1465.59 332.79c-2.03,-15.2 -5.33,-34.62 -8.88,-54.29l1430.58 -442.78c-38.99,-125.55 -89.21,-246.15 -149.47,-360.64l-751.17 398 0 -0.29c0,-37.1 -21.99,-86.64 -28.5,-100.63l-3.82 -8.6 696.85 -438.09c-84.97,-134.03 -184.36,-257.98 -296.06,-369.66 -388.17,-388.2 -924.5,-628.33 -1516.88,-628.33 -592.36,0 -1128.68,240.13 -1516.88,628.33 -111.81,111.81 -211.34,235.92 -296.38,370.12l943.85 594.37 -0.39 9.94c-1.11,27.26 -2.27,56.03 -0.1,88.24l-1029.93 -542.99c-59.92,113.92 -109.91,233.93 -148.79,358.84l1199.2 371.65 4.12 37c2.17,21.11 5.12,33.56 8.53,43.11l-1256.12 -286.22c-28.15,125.11 -45.4,254.36 -50.61,386.67l1322.7 51.31c5.12,19.41 12.22,42.01 22,68.72l-1473.66 57.24c-1.21,-30.34 -1.84,-60.72 -1.84,-91.14zm2879.48 -384.5l0 0c0.88,22.67 0.8,47.04 0.33,68.36l287.91 -150.31c-5.22,-7.12 -9.71,-15.18 -13.36,-24.16l-0.25 0.1c-4.01,-9.84 -6.51,-20.35 -7.42,-31.4 -3.71,-7.92 -9.03,-15.33 -15.41,-22.56l-251.8 159.97z"/>
   <path class="fil0" d="M4043.95 4230.73c-281.41,238.92 -645.86,383.11 -1043.98,383.11 -271.57,0 -534.19,-68.39 -766.17,-193.52 -98.62,-53.19 -191.69,-116.7 -277.61,-189.59l102.59 0c65.02,49.71 133.74,94.11 205.54,132.83 222.63,120.08 474.77,185.74 735.65,185.74 354,0 680.31,-118.76 941.22,-318.57l102.76 0z"/>
  </g>
 </g>
</svg>
